<?xml version="1.0" encoding="utf-8"?>

<!-- Uploaded to: SVG Repo, www.svgrepo.com, Generator: SVG Repo Mixer Tools -->
<svg width="40" height="25" viewBox="0 0 40 25" xmlns="http://www.w3.org/2000/svg">

  <g fill="#2566af">
    <path
      d="M17.8 17h-2.8l1.8-10.3h2.8zM12.8 6.3L10 14.8l-0.3-1.5.001.002-0.9-4.6s-0.1-0.9-1.3-0.9h-4.3l-0.1.2s1.3.2 2.9 1.2l2.4 8.9h2.9l4.4-10.3H12.8zM34.4 17h2.5l-2.1-10.3h-2.2c-1 0-1.2 0.8-1.2 0.8L27.1 17h2.9l0.6-1.5h3.5l0.3 1.5zm-3-3.6l1.4-3.9 0.9 3.9h-2.3zM27.4 8.4l0.4-2.1s-1.2-0.5-2.5-0.5c-1.4 0-4.6 0.6-4.6 3.4 0 2.7 3.9 2.7 3.9 4s-3.4 1.1-4.5 0.3l-0.4 2.3s1.2 0.6 3.1 0.6c1.9 0 4.7-1 4.7-3.5 0-2.7-3.9-2.9-3.9-4 0-1.1 2.7-1 3.9-0.4z" />
  </g>

  <path
    d="M9.9 12.4l-0.9-4.6s-0.1-0.9-1.3-0.9h-4.3l-0.1.2s2 0.4 4.1 2c1.9 1.4 2.5 3.4 2.5 3.4z"
    fill="#e6a540" />

  <path fill="none" d="M0 0h40v25H0z" />

</svg>